<?xml version="1.0" encoding="UTF-8"?>
<svg version="1.1" xmlns="http://www.w3.org/2000/svg" width="1856" height="2049">
<path d="M0 0 C1.42647858 0.00323273 1.42647858 0.00323273 2.8817749 0.00653076 C16.74290745 0.05694972 30.27562974 0.39170855 43.875 3.3125 C45.36821777 3.62646729 45.36821777 3.62646729 46.89160156 3.94677734 C81.08325292 11.29584996 110.62971432 25.21185193 140.65087891 42.90869141 C147.8384896 47.14352906 155.08393683 51.25863029 162.375 55.3125 C171.53246204 60.41038808 180.61194137 65.62558622 189.65332031 70.92626953 C197.2829881 75.39528735 204.94477486 79.80611631 212.625 84.1875 C213.20931793 84.52086365 213.79363586 84.85422729 214.3956604 85.19769287 C217.3669198 86.8925349 220.33863272 88.58657984 223.31054688 90.28027344 C229.75035986 93.95092282 236.18462116 97.63129911 242.61987305 101.30993652 C244.36633855 102.30824836 246.11284174 103.30649421 247.859375 104.3046875 C248.43606934 104.63428467 249.01276367 104.96388184 249.60693359 105.3034668 C253.14595623 107.32569493 256.68629356 109.34560109 260.22761536 111.36380005 C263.19383394 113.05429075 266.1595512 114.74565935 269.125 116.4375 C269.7079483 116.77005798 270.29089661 117.10261597 270.89151001 117.44525146 C278.97745969 122.06038047 287.03072771 126.72871812 295.0625 131.4375 C304.14926405 136.76396411 313.31290701 141.93817836 322.51586914 147.06079102 C330.73781265 151.64818822 338.87566714 156.36854656 346.99609375 161.1328125 C353.75321523 165.09144068 360.54841662 168.9750232 367.375 172.8125 C375.21135271 177.21760575 382.99636287 181.70092997 390.75 186.25 C398.90650813 191.03359579 407.1129649 195.71363227 415.375 200.3125 C424.53219965 205.41087113 433.61193022 210.62557969 442.65332031 215.92626953 C450.2829881 220.39528735 457.94477486 224.80611631 465.625 229.1875 C466.5014769 229.68754547 466.5014769 229.68754547 467.3956604 230.19769287 C470.3669198 231.8925349 473.33863272 233.58657984 476.31054688 235.28027344 C481.58593295 238.28720744 486.85734438 241.30109617 492.12902832 244.31451416 C495.04418658 245.9807993 497.95960663 247.64662627 500.875 249.3125 C502.04166792 249.97916448 503.20833459 250.64583114 504.375 251.3125 C504.9525 251.6425 505.53 251.9725 506.125 252.3125 C511.375 255.3125 511.375 255.3125 513.12493896 256.31246948 C514.29180407 256.97924664 515.45867419 257.64601503 516.62554932 258.31277466 C519.53922091 259.97767906 522.45280578 261.64273486 525.36621094 263.30810547 C530.65184891 266.32930142 535.93813903 269.34932799 541.22761536 272.36380005 C544.19383394 274.05429075 547.1595512 275.74565935 550.125 277.4375 C550.7079483 277.77005798 551.29089661 278.10261597 551.89151001 278.44525146 C559.97745969 283.06038047 568.03072771 287.72871812 576.0625 292.4375 C585.14926405 297.76396411 594.31290701 302.93817836 603.51586914 308.06079102 C611.73781265 312.64818822 619.87566714 317.36854656 627.99609375 322.1328125 C634.75321523 326.09144068 641.54841662 329.9750232 648.375 333.8125 C656.21135271 338.21760575 663.99636287 342.70092997 671.75 347.25 C679.90650563 352.03359433 688.11290677 356.71373924 696.375 361.3125 C705.64942273 366.47473312 714.84127738 371.76166861 723.99609375 377.1328125 C730.75321523 381.09144068 737.54841662 384.9750232 744.375 388.8125 C752.21135271 393.21760575 759.99636287 397.70092997 767.75 402.25 C775.90650813 407.03359579 784.1129649 411.71363227 792.375 416.3125 C801.53219965 421.41087113 810.61193022 426.62557969 819.65332031 431.92626953 C827.2829881 436.39528735 834.94477486 440.80611631 842.625 445.1875 C843.5014769 445.68754547 843.5014769 445.68754547 844.3956604 446.19769287 C847.3669198 447.8925349 850.33863272 449.58657984 853.31054688 451.28027344 C858.58593295 454.28720744 863.85734438 457.30109617 869.12902832 460.31451416 C872.04418658 461.9807993 874.95960663 463.64662627 877.875 465.3125 C879.04166792 465.97916448 880.20833459 466.64583114 881.375 467.3125 C881.9525 467.6425 882.53 467.9725 883.125 468.3125 C888.37500001 471.31250001 888.37500001 471.31250001 890.12493896 472.31246948 C891.29180407 472.97924664 892.45867419 473.64601503 893.62554932 474.31277466 C896.53922091 475.97767906 899.45280578 477.64273486 902.36621094 479.30810547 C907.65184891 482.32930142 912.93813903 485.34932799 918.22761536 488.36380005 C921.19383394 490.05429075 924.1595512 491.74565935 927.125 493.4375 C927.7079483 493.77005798 928.29089661 494.10261597 928.89151001 494.44525146 C936.97745969 499.06038047 945.03072771 503.72871812 953.0625 508.4375 C962.14926405 513.76396411 971.31290701 518.93817836 980.51586914 524.06079102 C988.73781265 528.64818822 996.87566714 533.36854656 1004.99609375 538.1328125 C1011.75321523 542.09144068 1018.54841662 545.9750232 1025.375 549.8125 C1033.21135271 554.21760575 1040.99636287 558.70092997 1048.75 563.25 C1057.94157519 568.64063772 1067.20834633 573.88056904 1076.51904297 579.06225586 C1084.68947845 583.62053228 1092.77261348 588.31618706 1100.84008789 593.05371094 C1108.11464778 597.31426033 1115.44740396 601.46068919 1122.8125 605.5625 C1130.31531124 609.74158472 1137.77428021 613.97335884 1145.15869141 618.35791016 C1151.79454229 622.28846037 1158.48853618 626.11578116 1165.1875 629.9375 C1165.78422516 630.27795349 1166.38095032 630.61840698 1166.99575806 630.96917725 C1170.06272965 632.71869078 1173.13014641 634.46742207 1176.19775391 636.21582031 C1181.51317829 639.24583508 1186.82481791 642.28247097 1192.1366272 645.31881714 C1195.04670525 646.98226625 1197.95692204 648.64547254 1200.8671875 650.30859375 C1201.44432999 650.63841751 1202.02147247 650.96824127 1202.61610413 651.30805969 C1206.135575 653.31915522 1209.65570373 655.3290941 1213.17633057 657.33816528 C1226.16603355 664.75089663 1239.14072044 672.18861088 1252.09082031 679.67041016 C1263.486459 686.25038357 1274.91389357 692.77441372 1286.34277344 699.29638672 C1292.77103046 702.96501603 1299.19647645 706.63856773 1305.62243652 710.31121826 C1307.3706693 711.31037414 1309.11892088 712.30949709 1310.8671875 713.30859375 C1311.44428467 713.63839233 1312.02138184 713.96819092 1312.6159668 714.3079834 C1316.13548502 716.3191016 1319.65565826 718.32906815 1323.17633057 720.33816528 C1336.16603355 727.75089663 1349.14072044 735.18861088 1362.09082031 742.67041016 C1373.486459 749.25038357 1384.91389357 755.77441372 1396.34277344 762.29638672 C1402.77103046 765.96501603 1409.19647645 769.63856773 1415.62243652 773.31121826 C1417.3706693 774.31037414 1419.11892088 775.30949709 1420.8671875 776.30859375 C1421.44428467 776.63839233 1422.02138184 776.96819092 1422.6159668 777.3079834 C1426.13545928 779.31908689 1429.6556058 781.32904043 1433.17625427 783.33811951 C1436.11771702 785.01670458 1439.05892572 786.69573438 1442 788.375 C1442.57906097 788.70561432 1443.15812195 789.03622864 1443.75473022 789.37686157 C1452.24665431 794.2265335 1460.72144015 799.10532194 1469.1875 804 C1481.03815183 810.85127134 1492.94376961 817.60268331 1504.875 824.3125 C1504.875 824.9725 1504.875 825.6325 1504.875 826.3125 C1505.65875 826.50972656 1506.4425 826.70695313 1507.25 826.91015625 C1512.269577 828.85199692 1516.43508907 831.73740275 1520.875 834.75 C1521.80908691 835.38035156 1522.74317383 836.01070312 1523.70556641 836.66015625 C1554.05256397 857.32728263 1578.62577477 883.41534991 1596.875 915.3125 C1597.27170898 915.99747559 1597.66841797 916.68245117 1598.07714844 917.38818359 C1616.70836848 949.84836034 1625.68390944 986.79683181 1625.39648438 1024.07641602 C1625.37498137 1027.37786025 1625.39647037 1030.67713504 1625.421875 1033.97851562 C1625.46611061 1068.5279702 1616.34216387 1102.9470186 1599.875 1133.3125 C1599.53388184 1133.95848145 1599.19276367 1134.60446289 1598.84130859 1135.27001953 C1590.3703106 1151.300604 1579.92629821 1165.79017144 1567.875 1179.3125 C1567.40674805 1179.84246582 1566.93849609 1180.37243164 1566.45605469 1180.91845703 C1560.93806831 1187.14546893 1555.30068528 1193.0068883 1548.875 1198.3125 C1547.58916016 1199.43011719 1547.58916016 1199.43011719 1546.27734375 1200.5703125 C1532.89133639 1212.06462299 1518.24921828 1221.03310772 1502.88134766 1229.62451172 C1497.93245723 1232.40318871 1493.0097052 1235.22745668 1488.08459473 1238.04800415 C1485.09785045 1239.75786741 1482.10937805 1241.46470514 1479.12109375 1243.171875 C1477.90998535 1243.86391805 1476.69888509 1244.55597534 1475.48779297 1245.24804688 C1359.91259494 1311.29101717 1359.91259494 1311.29101717 1298.62504578 1346.31246948 C1297.45822151 1346.97922911 1296.29140226 1347.6459975 1295.12458801 1348.31277466 C1292.21037354 1349.97809088 1289.29607258 1351.64325537 1286.3815918 1353.30810547 C1281.10224336 1356.32404606 1275.82356056 1359.34112341 1270.54806519 1362.36380005 C1267.59496984 1364.0557784 1264.64137011 1365.74687464 1261.6875 1367.4375 C1261.10649536 1367.77005798 1260.52549072 1368.10261597 1259.92687988 1368.44525146 C1251.68714849 1373.15919898 1243.41703158 1377.81617995 1235.125 1382.4375 C1225.98054429 1387.53464598 1216.92140908 1392.76248746 1207.89355469 1398.06298828 C1199.73381504 1402.84173087 1191.49291893 1407.46426686 1183.23046875 1412.0625 C1176.06146305 1416.06214452 1168.95407237 1420.15598044 1161.875 1424.3125 C1152.73606324 1429.67848122 1143.5219893 1434.89247208 1134.26123047 1440.04492188 C1125.80968256 1444.75922844 1117.4407005 1449.60604536 1109.10351562 1454.51953125 C1106.36719407 1456.12868035 1103.62218059 1457.72197548 1100.875 1459.3125 C1099.8859668 1459.89773438 1098.89693359 1460.48296875 1097.87792969 1461.0859375 C1096.90500977 1461.64539062 1095.93208984 1462.20484375 1094.9296875 1462.78125 C1094.05554199 1463.29107422 1093.18139648 1463.80089844 1092.28076172 1464.32617188 C1089.875 1465.3125 1089.875 1465.3125 1087.81591797 1465.20922852 C1085.27263172 1464.03419828 1083.72399679 1462.49897399 1081.765625 1460.49609375 C1081.01152344 1459.73232422 1080.25742188 1458.96855469 1079.48046875 1458.18164062 C1078.70316406 1457.37919922 1077.92585938 1456.57675781 1077.125 1455.75 C1076.33222656 1454.94369141 1075.53945312 1454.13738281 1074.72265625 1453.30664062 C1072.76652954 1451.31516222 1070.81774281 1449.31702279 1068.875 1447.3125 C1072.59637406 1451.69291792 1076.37319993 1456.0064756 1080.25 1460.25 C1081.56097656 1461.68666016 1081.56097656 1461.68666016 1082.8984375 1463.15234375 C1083.55070312 1463.86519531 1084.20296875 1464.57804687 1084.875 1465.3125 C1083.67701174 1468.90646479 1083.05127605 1469.04869291 1079.80859375 1470.73828125 C1078.5105481 1471.42736572 1078.5105481 1471.42736572 1077.1862793 1472.13037109 C1075.76375854 1472.8702124 1075.76375854 1472.8702124 1074.3125 1473.625 C1066.12530469 1477.98141553 1058.05131916 1482.4770428 1050.0625 1487.1875 C1040.77793644 1492.64789809 1031.42131981 1497.96190569 1022.01367188 1503.20703125 C1012.88419867 1508.29857775 1003.80430533 1513.47277882 994.73632812 1518.67285156 C989.26485222 1521.80821267 983.78825642 1524.93462268 978.3125 1528.0625 C968.41194548 1533.71788537 968.41194548 1533.71788537 958.51634216 1539.38192749 C955.57381899 1541.06785957 952.63079528 1542.75291628 949.6875 1544.4375 C949.10712982 1544.76969543 948.52675964 1545.10189087 947.92880249 1545.44415283 C939.68843001 1550.15846644 931.41767647 1554.81582054 923.125 1559.4375 C913.98283915 1564.53336682 904.9264195 1569.76061224 895.90014648 1575.05859375 C887.6629407 1579.88155697 879.34968471 1584.5592535 871.01293945 1589.20751953 C861.88362258 1594.29874609 852.80405085 1599.47292475 843.73632812 1604.67285156 C838.26485222 1607.80821267 832.78825642 1610.93462268 827.3125 1614.0625 C817.41194548 1619.71788537 817.41194548 1619.71788537 807.51634216 1625.38192749 C804.57381899 1627.06785957 801.63079528 1628.75291628 798.6875 1630.4375 C798.10712982 1630.76969543 797.52675964 1631.10189087 796.92880249 1631.44415283 C788.68843001 1636.15846644 780.41767647 1640.81582054 772.125 1645.4375 C762.98283915 1650.53336682 753.9264195 1655.76061224 744.90014648 1661.05859375 C736.6629407 1665.88155697 728.34968471 1670.5592535 720.01293945 1675.20751953 C710.88362258 1680.29874609 701.80405085 1685.47292475 692.73632812 1690.67285156 C687.26485222 1693.80821267 681.78825642 1696.93462268 676.3125 1700.0625 C666.41194548 1705.71788537 666.41194548 1705.71788537 656.51634216 1711.38192749 C653.57381899 1713.06785957 650.63079528 1714.75291628 647.6875 1716.4375 C647.10712982 1716.76969543 646.52675964 1717.10189087 645.92880249 1717.44415283 C637.68843001 1722.15846644 629.41767647 1726.81582054 621.125 1731.4375 C611.98283915 1736.53336682 602.9264195 1741.76061224 593.90014648 1747.05859375 C585.6629407 1751.88155697 577.34968471 1756.5592535 569.01293945 1761.20751953 C559.88362258 1766.29874609 550.80405085 1771.47292475 541.73632812 1776.67285156 C536.26485222 1779.80821267 530.78825642 1782.93462268 525.3125 1786.0625 C515.41194548 1791.71788537 515.41194548 1791.71788537 505.51634216 1797.38192749 C502.57381899 1799.06785957 499.63079528 1800.75291628 496.6875 1802.4375 C496.10712982 1802.76969543 495.52675964 1803.10189087 494.92880249 1803.44415283 C486.68843001 1808.15846644 478.41767647 1812.81582054 470.125 1817.4375 C460.98283915 1822.53336682 451.9264195 1827.76061224 442.90014648 1833.05859375 C434.6629407 1837.88155697 426.34968471 1842.5592535 418.01293945 1847.20751953 C408.88362258 1852.29874609 399.80405085 1857.47292475 390.73632812 1862.67285156 C385.26485222 1865.80821267 379.78825642 1868.93462268 374.3125 1872.0625 C364.41194548 1877.71788537 364.41194548 1877.71788537 354.51634216 1883.38192749 C351.57381899 1885.06785957 348.63079528 1886.75291628 345.6875 1888.4375 C345.10712982 1888.76969543 344.52675964 1889.10189087 343.92880249 1889.44415283 C335.68843001 1894.15846644 327.41767647 1898.81582054 319.125 1903.4375 C309.98283915 1908.53336682 300.9264195 1913.76061224 291.90014648 1919.05859375 C283.6629407 1923.88155697 275.34968471 1928.5592535 267.01293945 1933.20751953 C257.88362258 1938.29874609 248.80405085 1943.47292475 239.73632812 1948.67285156 C234.26485222 1951.80821267 228.78825642 1954.93462268 223.3125 1958.0625 C213.41194548 1963.71788537 213.41194548 1963.71788537 203.51634216 1969.38192749 C200.57381899 1971.06785957 197.63079528 1972.75291628 194.6875 1974.4375 C194.10712982 1974.76969543 193.52675964 1975.10189087 192.92880249 1975.44415283 C183.66429378 1980.74437435 174.35706746 1985.96517941 165.03320312 1991.16015625 C157.86573847 1995.16590671 150.76614168 1999.27712529 143.6875 2003.4375 C132.54660461 2009.97632476 121.27532519 2016.23818629 109.875 2022.3125 C108.89877686 2022.839646 108.89877686 2022.839646 107.90283203 2023.37744141 C55.828113 2051.40003312 -8.79436511 2055.43377498 -65.125 2039.3125 C-94.53339686 2030.27674785 -121.06408425 2016.425769 -145.125 1997.3125 C-145.67961914 1996.87502441 -146.23423828 1996.43754883 -146.80566406 1995.98681641 C-161.03282516 1984.66641895 -174.14382902 1971.66963257 -184.89404297 1956.9921875 C-186.12285707 1955.3154241 -187.37444508 1953.65762847 -188.62890625 1952 C-214.61349826 1917.17800867 -231.33835974 1873.41359645 -231.25380117 1829.74737507 C-231.25557618 1828.60440805 -231.25735119 1827.46144103 -231.25917998 1826.28383865 C-231.26309214 1823.11478417 -231.2625518 1819.94576682 -231.26012228 1816.77671203 C-231.2585761 1813.31481868 -231.26284066 1809.85293154 -231.26634905 1806.3910403 C-231.2717175 1800.30136359 -231.27336673 1794.21169461 -231.2725983 1788.12201572 C-231.27146222 1779.00527617 -231.27604609 1769.8885456 -231.28172914 1760.77180807 C-231.29123869 1745.23391968 -231.2959478 1729.6960331 -231.29803848 1714.15814209 C-231.30016692 1698.40882673 -231.30442669 1682.65951415 -231.3112812 1666.91020012 C-231.31171182 1665.91591105 -231.31214243 1664.92162198 -231.3125861 1663.89720294 C-231.31434445 1659.84766627 -231.31611409 1655.79812961 -231.31789912 1651.74859296 C-231.33949874 1602.65158102 -231.35037803 1553.55456853 -231.35937535 1504.45755292 C-231.36230942 1488.53555249 -231.36567933 1472.6135522 -231.36934257 1456.69155192 C-231.36960086 1455.56825998 -231.36985915 1454.44496804 -231.37012527 1453.28763694 C-231.3711715 1448.74313997 -231.37221992 1444.19864301 -231.37327109 1439.65414604 C-231.39123643 1361.91555015 -231.406615 1284.17695405 -231.41403012 1206.43835638 C-231.41461409 1200.33198507 -231.41521136 1194.22561376 -231.41580774 1188.11924246 C-231.41592586 1186.90793622 -231.41604398 1185.69662999 -231.41616567 1184.44861751 C-231.41736306 1172.17645151 -231.41857182 1159.9042855 -231.41979821 1147.6321195 C-231.42004344 1145.17152056 -231.4202873 1142.71092161 -231.42052978 1140.25032266 C-231.42831821 1061.23790649 -231.45069839 982.22550517 -231.4832062 903.21309549 C-231.50655562 846.44164482 -231.52810543 789.67019711 -231.53521252 732.89874172 C-231.53535954 731.73090212 -231.53550656 730.56306252 -231.53565803 729.35983384 C-231.53884306 703.72108028 -231.54089381 678.08232675 -231.54188558 652.44357302 C-231.54230031 642.1271356 -231.54285521 631.8106982 -231.54344749 621.49426079 C-231.54350816 620.36520316 -231.54356883 619.23614554 -231.54363134 618.07287405 C-231.54564637 581.72102048 -231.55987777 545.36918447 -231.5803925 509.01733702 C-231.60098755 472.3931977 -231.60886023 435.76907866 -231.59931473 399.14493413 C-231.59799635 394.07949542 -231.59681828 389.01405669 -231.59572411 383.94861794 C-231.59550426 382.95568828 -231.59528441 381.96275862 -231.5950579 380.93974018 C-231.5919484 365.24269278 -231.60225129 349.54568427 -231.61819966 333.84864587 C-231.63361727 318.39843479 -231.63467268 302.94827727 -231.62065142 287.49806428 C-231.61286646 278.45046295 -231.61588285 269.40302571 -231.63528858 260.35544092 C-231.64710316 254.33106672 -231.64415159 248.30681124 -231.62967394 242.28244328 C-231.62189018 238.8772293 -231.62219107 235.47259067 -231.63629298 232.06736029 C-231.77891738 195.20426292 -224.86396922 158.98408279 -207.20654297 126.31494141 C-206.04845909 124.17078702 -204.91763007 122.0132466 -203.78515625 119.85546875 C-198.36617956 109.67826068 -192.24392679 100.37538985 -185.125 91.3125 C-184.36316406 90.33796875 -183.60132813 89.3634375 -182.81640625 88.359375 C-143.9446057 39.85623705 -87.69010555 7.70860018 -25.62475586 0.70727539 C-17.11055058 -0.12719116 -8.54615281 -0.03485791 0 0 Z " fill="#4284F3" transform="translate(231.125,-0.3125)"/>
<path d="M0 0 C2.93134469 1.11973201 5.52584091 2.46518684 8.24169922 4.04150391 C9.35480469 4.6828125 10.46791016 5.32412109 11.61474609 5.98486328 C12.81988511 6.68853505 14.02496156 7.39231397 15.22998047 8.09619141 C16.48805972 8.82406957 17.74652959 9.55127296 19.00537109 10.27783203 C21.59465682 11.77373228 24.18162569 13.27352005 26.76660156 14.77685547 C31.29695336 17.41128696 35.83698308 20.02885036 40.37719727 22.64624023 C42.50285018 23.87179022 44.62800619 25.09820242 46.75268555 26.32543945 C58.14961391 32.90763648 69.57943966 39.43200126 81.01025391 45.95507812 C87.43851092 49.62370744 93.86395692 53.29725914 100.28991699 56.96990967 C102.03814977 57.96906554 103.78640135 58.96818849 105.53466797 59.96728516 C106.40031372 60.46198303 106.40031372 60.46198303 107.28344727 60.9666748 C110.80296549 62.97779301 114.32313872 64.98775956 117.84381104 66.99685669 C130.83351402 74.40958803 143.80820091 81.84730229 156.75830078 89.32910156 C168.15393947 95.90907498 179.58137404 102.43310512 191.01025391 108.95507812 C197.43851092 112.62370744 203.86395692 116.29725914 210.28991699 119.96990967 C212.03814977 120.96906554 213.78640135 121.96818849 215.53466797 122.96728516 C216.11176514 123.29708374 216.6888623 123.62688232 217.28344727 123.9666748 C220.80296549 125.97779301 224.32313872 127.98775956 227.84381104 129.99685669 C240.83351402 137.40958803 253.80820091 144.84730229 266.75830078 152.32910156 C278.15393947 158.90907498 289.58137404 165.43310512 301.01025391 171.95507812 C307.43851092 175.62370744 313.86395692 179.29725914 320.28991699 182.96990967 C322.03814977 183.96906554 323.78640135 184.96818849 325.53466797 185.96728516 C326.11176514 186.29708374 326.6888623 186.62688232 327.28344727 186.9666748 C330.80296549 188.97779301 334.32313872 190.98775956 337.84381104 192.99685669 C350.81441838 200.39869087 363.77019181 207.82519838 376.70117188 215.29614258 C385.13649025 220.16685033 393.58606439 225.01224163 402.04248047 229.84619141 C402.66010254 230.1994751 403.27772461 230.55275879 403.9140625 230.91674805 C405.65443085 231.91207811 407.39531833 232.90650028 409.13623047 233.90087891 C410.13332031 234.4704834 411.13041016 235.04008789 412.15771484 235.62695312 C413.60150364 236.44078411 415.06009132 237.22999683 416.54248047 237.97119141 C416.54248047 238.63119141 416.54248047 239.29119141 416.54248047 239.97119141 C417.32623047 240.16841797 418.10998047 240.36564453 418.91748047 240.56884766 C423.93705746 242.51068833 428.10256954 245.39609416 432.54248047 248.40869141 C433.47656738 249.03904297 434.4106543 249.66939453 435.37304688 250.31884766 C465.72004444 270.98597404 490.29325524 297.07404132 508.54248047 328.97119141 C509.13754395 329.99865479 509.13754395 329.99865479 509.74462891 331.046875 C528.37584895 363.50705175 537.35138991 400.45552322 537.06396484 437.73510742 C537.04246184 441.03655166 537.06395084 444.33582644 537.08935547 447.63720703 C537.13359108 482.18666161 528.00964434 516.60571 511.54248047 546.97119141 C511.2013623 547.61717285 510.86024414 548.2631543 510.50878906 548.92871094 C502.03779107 564.95929541 491.59377868 579.44886285 479.54248047 592.97119141 C479.07422852 593.50115723 478.60597656 594.03112305 478.12353516 594.57714844 C472.60554877 600.80416034 466.96816575 606.6655797 460.54248047 611.97119141 C459.68525391 612.71626953 458.82802734 613.46134766 457.94482422 614.22900391 C444.55881686 625.72331439 429.91669875 634.69179912 414.54882812 643.28320312 C409.59993769 646.06188011 404.67718567 648.88614809 399.7520752 651.70669556 C396.76533092 653.41655882 393.77685852 655.12339655 390.78857422 656.83056641 C389.57746582 657.52260946 388.36636556 658.21466675 387.15527344 658.90673828 C271.58007541 724.94970858 271.58007541 724.94970858 210.29252625 759.97116089 C209.12570198 760.63792052 207.95888273 761.30468891 206.79206848 761.97146606 C203.87785401 763.63678229 200.96355305 765.30194677 198.04907227 766.96679688 C192.76972383 769.98273746 187.49104103 772.99981482 182.21554565 776.02249146 C179.26245031 777.71446981 176.30885058 779.40556605 173.35498047 781.09619141 C172.77397583 781.42874939 172.19297119 781.76130737 171.59436035 782.10394287 C163.35462896 786.81789039 155.08451205 791.47487135 146.79248047 796.09619141 C137.64802476 801.19333739 128.58888955 806.42117887 119.56103516 811.72167969 C111.40129551 816.50042227 103.1603994 821.12295826 94.89794922 825.72119141 C87.72894352 829.72083593 80.62155284 833.81467185 73.54248047 837.97119141 C64.40354371 843.33717262 55.18946977 848.55116349 45.92871094 853.70361328 C37.47716303 858.41791985 29.10818097 863.26473676 20.77099609 868.17822266 C18.03467454 869.78737175 15.28966106 871.38066688 12.54248047 872.97119141 C11.55344727 873.55642578 10.56441406 874.14166016 9.54541016 874.74462891 C8.08603027 875.58380859 8.08603027 875.58380859 6.59716797 876.43994141 C5.72302246 876.94976563 4.84887695 877.45958984 3.94824219 877.98486328 C1.54248047 878.97119141 1.54248047 878.97119141 -0.51660156 878.86791992 C-3.05988781 877.69288968 -4.60852274 876.1576654 -6.56689453 874.15478516 C-7.69804687 873.00913086 -7.69804687 873.00913086 -8.85205078 871.84033203 C-9.62935547 871.03789063 -10.40666016 870.23544922 -11.20751953 869.40869141 C-12.39667969 868.19922852 -12.39667969 868.19922852 -13.60986328 866.96533203 C-15.56598999 864.97385363 -17.51477672 862.9757142 -19.45751953 860.97119141 C-15.73614547 865.35160933 -11.9593196 869.66516701 -8.08251953 873.90869141 C-6.77154297 875.34535156 -6.77154297 875.34535156 -5.43408203 876.81103516 C-4.78181641 877.52388672 -4.12955078 878.23673828 -3.45751953 878.97119141 C-4.6555078 882.5651562 -5.28124348 882.70738432 -8.52392578 884.39697266 C-9.82197144 885.08605713 -9.82197144 885.08605713 -11.14624023 885.7890625 C-12.56876099 886.52890381 -12.56876099 886.52890381 -14.02001953 887.28369141 C-22.20721485 891.64010694 -30.28120038 896.1357342 -38.27001953 900.84619141 C-47.55458309 906.3065895 -56.91119972 911.6205971 -66.31884766 916.86572266 C-75.44832086 921.95726916 -84.52821421 927.13147022 -93.59619141 932.33154297 C-99.06766731 935.46690408 -104.54426311 938.59331409 -110.02001953 941.72119141 C-119.92057405 947.37657677 -119.92057405 947.37657677 -129.81617737 953.0406189 C-132.75870054 954.72655097 -135.70172425 956.41160768 -138.64501953 958.09619141 C-139.22538971 958.42838684 -139.80575989 958.76058228 -140.40371704 959.10284424 C-148.64408952 963.81715785 -156.91484306 968.47451195 -165.20751953 973.09619141 C-174.34968038 978.19205823 -183.40610003 983.41930365 -192.43237305 988.71728516 C-200.66957883 993.54024838 -208.98283482 998.21794491 -217.31958008 1002.86621094 C-226.44889696 1007.95743749 -235.52846868 1013.13161615 -244.59619141 1018.33154297 C-250.06766731 1021.46690408 -255.54426311 1024.59331409 -261.02001953 1027.72119141 C-270.92057405 1033.37657677 -270.92057405 1033.37657677 -280.81617737 1039.0406189 C-283.75870054 1040.72655097 -286.70172425 1042.41160768 -289.64501953 1044.09619141 C-290.22538971 1044.42838684 -290.80575989 1044.76058228 -291.40371704 1045.10284424 C-299.64408952 1049.81715785 -307.91484306 1054.47451195 -316.20751953 1059.09619141 C-325.34968038 1064.19205823 -334.40610003 1069.41930365 -343.43237305 1074.71728516 C-351.66957883 1079.54024838 -359.98283482 1084.21794491 -368.31958008 1088.86621094 C-377.44889696 1093.95743749 -386.52846868 1099.13161615 -395.59619141 1104.33154297 C-401.06766731 1107.46690408 -406.54426311 1110.59331409 -412.02001953 1113.72119141 C-421.92057405 1119.37657677 -421.92057405 1119.37657677 -431.81617737 1125.0406189 C-434.75870054 1126.72655097 -437.70172425 1128.41160768 -440.64501953 1130.09619141 C-441.22538971 1130.42838684 -441.80575989 1130.76058228 -442.40371704 1131.10284424 C-450.64408952 1135.81715785 -458.91484306 1140.47451195 -467.20751953 1145.09619141 C-476.34968038 1150.19205823 -485.40610003 1155.41930365 -494.43237305 1160.71728516 C-502.66957883 1165.54024838 -510.98283482 1170.21794491 -519.31958008 1174.86621094 C-528.44889696 1179.95743749 -537.52846868 1185.13161615 -546.59619141 1190.33154297 C-552.06766731 1193.46690408 -557.54426311 1196.59331409 -563.02001953 1199.72119141 C-572.92057405 1205.37657677 -572.92057405 1205.37657677 -582.81617737 1211.0406189 C-585.75870054 1212.72655097 -588.70172425 1214.41160768 -591.64501953 1216.09619141 C-592.22538971 1216.42838684 -592.80575989 1216.76058228 -593.40371704 1217.10284424 C-601.64408952 1221.81715785 -609.91484306 1226.47451195 -618.20751953 1231.09619141 C-627.34968038 1236.19205823 -636.40610003 1241.41930365 -645.43237305 1246.71728516 C-653.66957883 1251.54024838 -661.98283482 1256.21794491 -670.31958008 1260.86621094 C-679.44889696 1265.95743749 -688.52846868 1271.13161615 -697.59619141 1276.33154297 C-703.06766731 1279.46690408 -708.54426311 1282.59331409 -714.02001953 1285.72119141 C-723.92057405 1291.37657677 -723.92057405 1291.37657677 -733.81617737 1297.0406189 C-736.75870054 1298.72655097 -739.70172425 1300.41160768 -742.64501953 1302.09619141 C-743.22538971 1302.42838684 -743.80575989 1302.76058228 -744.40371704 1303.10284424 C-752.64408952 1307.81715785 -760.91484306 1312.47451195 -769.20751953 1317.09619141 C-778.34968038 1322.19205823 -787.40610003 1327.41930365 -796.43237305 1332.71728516 C-804.66957883 1337.54024838 -812.98283482 1342.21794491 -821.31958008 1346.86621094 C-830.44889696 1351.95743749 -839.52846868 1357.13161615 -848.59619141 1362.33154297 C-854.06766731 1365.46690408 -859.54426311 1368.59331409 -865.02001953 1371.72119141 C-874.92057405 1377.37657677 -874.92057405 1377.37657677 -884.81617737 1383.0406189 C-887.75870054 1384.72655097 -890.70172425 1386.41160768 -893.64501953 1388.09619141 C-894.22538971 1388.42838684 -894.80575989 1388.76058228 -895.40371704 1389.10284424 C-904.66822575 1394.40306575 -913.97545207 1399.62387081 -923.29931641 1404.81884766 C-930.46678106 1408.82459811 -937.56637785 1412.93581669 -944.64501953 1417.09619141 C-955.78591492 1423.63501616 -967.05719434 1429.89687769 -978.45751953 1435.97119141 C-979.43374268 1436.4983374 -979.43374268 1436.4983374 -980.4296875 1437.03613281 C-1032.50440653 1465.05872453 -1097.12688464 1469.09246638 -1153.45751953 1452.97119141 C-1182.86591639 1443.93543926 -1209.39660378 1430.0844604 -1233.45751953 1410.97119141 C-1234.01213867 1410.53371582 -1234.56675781 1410.09624023 -1235.13818359 1409.64550781 C-1249.36534469 1398.32511035 -1262.47634856 1385.32832398 -1273.2265625 1370.65087891 C-1274.45537661 1368.97411551 -1275.70696461 1367.31631988 -1276.96142578 1365.65869141 C-1290.61397972 1347.36288309 -1312.45751953 1315.56178193 -1312.45751953 1291.97119141 C-1311.19421387 1290.72912598 -1311.19421387 1290.72912598 -1309.32275391 1289.20751953 C-1303.41471653 1284.17795744 -1298.02366216 1278.64845904 -1292.55924988 1273.14808655 C-1290.57614919 1271.15207617 -1288.58981379 1269.15933435 -1286.60266113 1267.1673584 C-1282.38478103 1262.93812035 -1278.17085401 1258.70495738 -1273.95751953 1254.47119141 C-1269.0702512 1249.56022351 -1264.1813224 1244.6509325 -1259.28813171 1239.74586487 C-1257.34303908 1237.79434889 -1255.40101287 1235.83981756 -1253.45910645 1233.88513184 C-1252.25234751 1232.67473626 -1251.04544563 1231.46448317 -1249.83837891 1230.25439453 C-1249.30931442 1229.72016373 -1248.78024994 1229.18593292 -1248.2351532 1228.63551331 C-1245.41401087 1225.81398307 -1242.52176014 1223.12748258 -1239.50341797 1220.51708984 C-1235.61644802 1217.15004164 -1231.96192265 1213.60421803 -1228.34228516 1209.95361328 C-1227.68097092 1209.29083878 -1227.01965668 1208.62806427 -1226.33830261 1207.94520569 C-1224.91697096 1206.52009793 -1223.49679452 1205.09383723 -1222.0776825 1203.66651917 C-1219.82572897 1201.40168323 -1217.57056257 1199.14008991 -1215.3145752 1196.87927246 C-1210.5260646 1192.07939074 -1205.74149934 1187.27558837 -1200.95751953 1182.47119141 C-1195.40939253 1176.89938601 -1189.85961808 1171.32924241 -1184.30558777 1165.76332092 C-1182.09459266 1163.54589063 -1179.88665512 1161.32544727 -1177.67883301 1159.1048584 C-1176.3102898 1157.73267933 -1174.94160412 1156.36064234 -1173.57275391 1154.98876953 C-1172.66694832 1154.07521446 -1172.66694832 1154.07521446 -1171.74284363 1153.14320374 C-1168.10091225 1149.50082971 -1164.32309963 1146.08476219 -1160.4280014 1142.71582794 C-1157.27182824 1139.92139725 -1154.30940439 1136.94611725 -1151.34228516 1133.95361328 C-1150.3503138 1132.95945152 -1150.3503138 1132.95945152 -1149.33830261 1131.94520569 C-1147.91697096 1130.52009793 -1146.49679452 1129.09383723 -1145.0776825 1127.66651917 C-1142.82572897 1125.40168323 -1140.57056257 1123.14008991 -1138.3145752 1120.87927246 C-1133.5260646 1116.07939074 -1128.74149934 1111.27558837 -1123.95751953 1106.47119141 C-1118.40939253 1100.89938601 -1112.85961808 1095.32924241 -1107.30558777 1089.76332092 C-1105.09459266 1087.54589063 -1102.88665512 1085.32544727 -1100.67883301 1083.1048584 C-1099.3102898 1081.73267933 -1097.94160412 1080.36064234 -1096.57275391 1078.98876953 C-1095.66694832 1078.07521446 -1095.66694832 1078.07521446 -1094.74284363 1077.14320374 C-1091.10091225 1073.50082971 -1087.32309963 1070.08476219 -1083.4280014 1066.71582794 C-1080.27182824 1063.92139725 -1077.30940439 1060.94611725 -1074.34228516 1057.95361328 C-1073.3503138 1056.95945152 -1073.3503138 1056.95945152 -1072.33830261 1055.94520569 C-1070.91697096 1054.52009793 -1069.49679452 1053.09383723 -1068.0776825 1051.66651917 C-1065.82572897 1049.40168323 -1063.57056257 1047.14008991 -1061.3145752 1044.87927246 C-1056.5260646 1040.07939074 -1051.74149934 1035.27558837 -1046.95751953 1030.47119141 C-1041.40939253 1024.89938601 -1035.85961808 1019.32924241 -1030.30558777 1013.76332092 C-1028.09459266 1011.54589063 -1025.88665512 1009.32544727 -1023.67883301 1007.1048584 C-1022.3102898 1005.73267933 -1020.94160412 1004.36064234 -1019.57275391 1002.98876953 C-1018.66694832 1002.07521446 -1018.66694832 1002.07521446 -1017.74284363 1001.14320374 C-1014.10091225 997.50082971 -1010.32309963 994.08476219 -1006.4280014 990.71582794 C-1003.27182824 987.92139725 -1000.30940439 984.94611725 -997.34228516 981.95361328 C-996.68097092 981.29083878 -996.01965668 980.62806427 -995.33830261 979.94520569 C-993.91697096 978.52009793 -992.49679452 977.09383723 -991.0776825 975.66651917 C-988.82572897 973.40168323 -986.57056257 971.14008991 -984.3145752 968.87927246 C-979.5260646 964.07939074 -974.74149934 959.27558837 -969.95751953 954.47119141 C-964.40939253 948.89938601 -958.85961808 943.32924241 -953.30558777 937.76332092 C-951.09459266 935.54589063 -948.88665512 933.32544727 -946.67883301 931.1048584 C-945.3102898 929.73267933 -943.94160412 928.36064234 -942.57275391 926.98876953 C-941.66694832 926.07521446 -941.66694832 926.07521446 -940.74284363 925.14320374 C-937.10091225 921.50082971 -933.32309963 918.08476219 -929.4280014 914.71582794 C-926.27182824 911.92139725 -923.30940439 908.94611725 -920.34228516 905.95361328 C-919.68097092 905.29083878 -919.01965668 904.62806427 -918.33830261 903.94520569 C-916.91697096 902.52009793 -915.49679452 901.09383723 -914.0776825 899.66651917 C-911.82572897 897.40168323 -909.57056257 895.14008991 -907.3145752 892.87927246 C-902.5260646 888.07939074 -897.74149934 883.27558837 -892.95751953 878.47119141 C-887.40939253 872.89938601 -881.85961808 867.32924241 -876.30558777 861.76332092 C-874.09459266 859.54589063 -871.88665512 857.32544727 -869.67883301 855.1048584 C-868.3102898 853.73267933 -866.94160412 852.36064234 -865.57275391 850.98876953 C-864.66694832 850.07521446 -864.66694832 850.07521446 -863.74284363 849.14320374 C-860.7387116 846.13870658 -857.6775238 843.25646318 -854.46325684 840.47692871 C-850.5552731 837.09681386 -846.88755811 833.52952815 -843.25048828 829.86181641 C-842.57942047 829.18928833 -841.90835266 828.51676025 -841.21694946 827.82385254 C-839.77433723 826.37746357 -838.33288024 824.9299216 -836.89248657 823.48132324 C-834.60692667 821.18288388 -832.31815625 818.88768432 -830.02856445 816.59326172 C-825.16872492 811.72204963 -820.31282988 806.84691736 -815.45751953 801.97119141 C-809.82678537 796.31678114 -804.19440517 790.66403106 -798.55776978 785.01550293 C-796.31353674 782.76483342 -794.07236031 780.5111511 -791.83129883 778.25732422 C-790.44253259 776.86492221 -789.05362394 775.47266223 -787.66455078 774.08056641 C-787.05132965 773.46217896 -786.43810852 772.8437915 -785.80630493 772.20666504 C-782.14197441 768.54189552 -778.34415656 765.1018831 -774.42477417 761.71260071 C-771.26945279 758.91951745 -768.30832255 755.94502615 -765.34228516 752.95361328 C-764.68097092 752.29083878 -764.01965668 751.62806427 -763.33830261 750.94520569 C-761.91697096 749.52009793 -760.49679452 748.09383723 -759.0776825 746.66651917 C-756.82572897 744.40168323 -754.57056257 742.14008991 -752.3145752 739.87927246 C-747.5260646 735.07939074 -742.74149934 730.27558837 -737.95751953 725.47119141 C-732.40939253 719.89938601 -726.85961808 714.32924241 -721.30558777 708.76332092 C-719.09459266 706.54589063 -716.88665512 704.32544727 -714.67883301 702.1048584 C-713.3102898 700.73267933 -711.94160412 699.36064234 -710.57275391 697.98876953 C-709.66694832 697.07521446 -709.66694832 697.07521446 -708.74284363 696.14320374 C-705.10091225 692.50082971 -701.32309963 689.08476219 -697.4280014 685.71582794 C-694.27182824 682.92139725 -691.30940439 679.94611725 -688.34228516 676.95361328 C-687.68097092 676.29083878 -687.01965668 675.62806427 -686.33830261 674.94520569 C-684.91697096 673.52009793 -683.49679452 672.09383723 -682.0776825 670.66651917 C-679.82572897 668.40168323 -677.57056257 666.14008991 -675.3145752 663.87927246 C-670.5260646 659.07939074 -665.74149934 654.27558837 -660.95751953 649.47119141 C-655.40939253 643.89938601 -649.85961808 638.32924241 -644.30558777 632.76332092 C-642.09459266 630.54589063 -639.88665512 628.32544727 -637.67883301 626.1048584 C-636.3102898 624.73267933 -634.94160412 623.36064234 -633.57275391 621.98876953 C-632.66694832 621.07521446 -632.66694832 621.07521446 -631.74284363 620.14320374 C-628.10091225 616.50082971 -624.32309963 613.08476219 -620.4280014 609.71582794 C-617.27182824 606.92139725 -614.30940439 603.94611725 -611.34228516 600.95361328 C-610.68097092 600.29083878 -610.01965668 599.62806427 -609.33830261 598.94520569 C-607.91697096 597.52009793 -606.49679452 596.09383723 -605.0776825 594.66651917 C-602.82572897 592.40168323 -600.57056257 590.14008991 -598.3145752 587.87927246 C-593.5260646 583.07939074 -588.74149934 578.27558837 -583.95751953 573.47119141 C-578.40939253 567.89938601 -572.85961808 562.32924241 -567.30558777 556.76332092 C-565.09459266 554.54589063 -562.88665512 552.32544727 -560.67883301 550.1048584 C-559.3102898 548.73267933 -557.94160412 547.36064234 -556.57275391 545.98876953 C-555.66694832 545.07521446 -555.66694832 545.07521446 -554.74284363 544.14320374 C-551.10091225 540.50082971 -547.32309963 537.08476219 -543.4280014 533.71582794 C-540.27182824 530.92139725 -537.30940439 527.94611725 -534.34228516 524.95361328 C-533.68097092 524.29083878 -533.01965668 523.62806427 -532.33830261 522.94520569 C-530.91697096 521.52009793 -529.49679452 520.09383723 -528.0776825 518.66651917 C-525.82572897 516.40168323 -523.57056257 514.14008991 -521.3145752 511.87927246 C-516.5260646 507.07939074 -511.74149934 502.27558837 -506.95751953 497.47119141 C-501.40939253 491.89938601 -495.85961808 486.32924241 -490.30558777 480.76332092 C-488.09459266 478.54589063 -485.88665512 476.32544727 -483.67883301 474.1048584 C-482.3102898 472.73267933 -480.94160412 471.36064234 -479.57275391 469.98876953 C-478.96888351 469.37973282 -478.36501312 468.77069611 -477.74284363 468.14320374 C-474.04177834 464.44168861 -470.20549577 460.95628693 -466.24613762 457.53298569 C-464.19617964 455.74299336 -462.24467382 453.87890124 -460.32397461 451.95117188 C-459.61997025 451.24709198 -458.91596588 450.54301208 -458.19062805 449.81759644 C-457.46014755 449.08195465 -456.72966705 448.34631287 -455.97705078 447.58837891 C-455.20117111 446.81108429 -454.42529144 446.03378967 -453.62590027 445.23294067 C-451.17155797 442.77305245 -448.72072871 440.30969866 -446.27001953 437.84619141 C-444.61465408 436.18580233 -442.95905713 434.525644 -441.30322266 432.86572266 C-437.65722738 429.20996196 -434.01343974 425.55201764 -430.37165833 421.89205933 C-429.73999252 421.25817291 -429.10832672 420.6242865 -428.45751953 419.97119141 C-427.71664093 419.21975357 -426.97576233 418.46831573 -426.21243286 417.69410706 C-423.44564103 414.95945087 -420.62267302 412.29816785 -417.77845669 409.64468288 C-409.24498095 401.68227504 -400.9082633 393.54864078 -392.68169975 385.27053642 C-390.56776432 383.14348095 -388.45040757 381.0198791 -386.33229065 378.89698792 C-381.85030744 374.40376696 -377.37236415 369.90653393 -372.89501953 365.40869141 C-367.66543464 360.15534902 -362.43412201 354.90374923 -357.19859505 349.6563282 C-355.12716869 347.57849084 -353.0588072 345.49763699 -350.99058533 343.41661072 C-349.71205308 342.13444391 -348.43337908 340.85241843 -347.15454102 339.57055664 C-346.59286224 339.00371155 -346.03118347 338.43686646 -345.45248413 337.85284424 C-342.55212518 334.95210789 -339.58669405 332.18108662 -336.48365784 329.49732971 C-332.60257774 326.13758248 -328.95542363 322.59766341 -325.34228516 318.95361328 C-324.3503138 317.95945152 -324.3503138 317.95945152 -323.33830261 316.94520569 C-321.91697096 315.52009793 -320.49679452 314.09383723 -319.0776825 312.66651917 C-316.82572897 310.40168323 -314.57056257 308.14008991 -312.3145752 305.87927246 C-307.5260646 301.07939074 -302.74149934 296.27558837 -297.95751953 291.47119141 C-292.40939253 285.89938601 -286.85961808 280.32924241 -281.30558777 274.76332092 C-279.09459266 272.54589063 -276.88665512 270.32544727 -274.67883301 268.1048584 C-273.3102898 266.73267933 -271.94160412 265.36064234 -270.57275391 263.98876953 C-269.96888351 263.37973282 -269.36501312 262.77069611 -268.74284363 262.14320374 C-265.10091225 258.50082971 -261.32309963 255.08476219 -257.4280014 251.71582794 C-254.27182824 248.92139725 -251.30940439 245.94611725 -248.34228516 242.95361328 C-247.3503138 241.95945152 -247.3503138 241.95945152 -246.33830261 240.94520569 C-244.91697096 239.52009793 -243.49679452 238.09383723 -242.0776825 236.66651917 C-239.82572897 234.40168323 -237.57056257 232.14008991 -235.3145752 229.87927246 C-230.5260646 225.07939074 -225.74149934 220.27558837 -220.95751953 215.47119141 C-215.40939253 209.89938601 -209.85961808 204.32924241 -204.30558777 198.76332092 C-202.09459266 196.54589063 -199.88665512 194.32544727 -197.67883301 192.1048584 C-196.3102898 190.73267933 -194.94160412 189.36064234 -193.57275391 187.98876953 C-192.96888351 187.37973282 -192.36501312 186.77069611 -191.74284363 186.14320374 C-188.10091225 182.50082971 -184.32309963 179.08476219 -180.4280014 175.71582794 C-177.27182824 172.92139725 -174.30940439 169.94611725 -171.34228516 166.95361328 C-170.3503138 165.95945152 -170.3503138 165.95945152 -169.33830261 164.94520569 C-167.91697096 163.52009793 -166.49679452 162.09383723 -165.0776825 160.66651917 C-162.82572897 158.40168323 -160.57056257 156.14008991 -158.3145752 153.87927246 C-153.5260646 149.07939074 -148.74149934 144.27558837 -143.95751953 139.47119141 C-138.40939253 133.89938601 -132.85961808 128.32924241 -127.30558777 122.76332092 C-125.09459266 120.54589063 -122.88665512 118.32544727 -120.67883301 116.1048584 C-119.3102898 114.73267933 -117.94160412 113.36064234 -116.57275391 111.98876953 C-115.96888351 111.37973282 -115.36501312 110.77069611 -114.74284363 110.14320374 C-111.10091225 106.50082971 -107.32309963 103.08476219 -103.4280014 99.71582794 C-100.27182824 96.92139725 -97.30940439 93.94611725 -94.34228516 90.95361328 C-93.3503138 89.95945152 -93.3503138 89.95945152 -92.33830261 88.94520569 C-90.91697096 87.52009793 -89.49679452 86.09383723 -88.0776825 84.66651917 C-85.82572897 82.40168323 -83.57056257 80.14008991 -81.3145752 77.87927246 C-76.5260646 73.07939074 -71.74149934 68.27558837 -66.95751953 63.47119141 C-61.40939253 57.89938601 -55.85961808 52.32924241 -50.30558777 46.76332092 C-48.09459266 44.54589063 -45.88665512 42.32544727 -43.67883301 40.1048584 C-42.3102898 38.73267933 -40.94160412 37.36064234 -39.57275391 35.98876953 C-38.96888351 35.37973282 -38.36501312 34.77069611 -37.74284363 34.14320374 C-34.04013457 30.44004464 -30.21036463 26.94193127 -26.23553753 23.53210449 C-23.68626564 21.29411148 -21.37816063 18.89831474 -19.03955078 16.43994141 C-18.08651489 15.4548498 -17.13271785 14.4704941 -16.17822266 13.48681641 C-14.70945419 11.96830532 -13.24603399 10.44582063 -11.79467773 8.91064453 C-10.36907948 7.40657081 -8.92527712 5.92219522 -7.47705078 4.43994141 C-6.63247314 3.55757812 -5.78789551 2.67521484 -4.91772461 1.76611328 C-2.45751953 -0.02880859 -2.45751953 -0.02880859 0 0 Z " fill="#E94335" transform="translate(1319.45751953125,586.02880859375)"/>
<path d="M0 0 C1.42647858 0.00323273 1.42647858 0.00323273 2.8817749 0.00653076 C16.74290745 0.05694972 30.27562974 0.39170855 43.875 3.3125 C45.36821777 3.62646729 45.36821777 3.62646729 46.89160156 3.94677734 C81.08325292 11.29584996 110.62971432 25.21185193 140.65087891 42.90869141 C147.8384896 47.14352906 155.08393683 51.25863029 162.375 55.3125 C171.53246204 60.41038808 180.61194137 65.62558622 189.65332031 70.92626953 C197.2829881 75.39528735 204.94477486 79.80611631 212.625 84.1875 C213.20931793 84.52086365 213.79363586 84.85422729 214.3956604 85.19769287 C217.3669198 86.8925349 220.33863272 88.58657984 223.31054688 90.28027344 C229.75035986 93.95092282 236.18462116 97.63129911 242.61987305 101.30993652 C244.36633855 102.30824836 246.11284174 103.30649421 247.859375 104.3046875 C248.43606934 104.63428467 249.01276367 104.96388184 249.60693359 105.3034668 C253.14595623 107.32569493 256.68629356 109.34560109 260.22761536 111.36380005 C263.19383394 113.05429075 266.1595512 114.74565935 269.125 116.4375 C269.7079483 116.77005798 270.29089661 117.10261597 270.89151001 117.44525146 C278.97745969 122.06038047 287.03072771 126.72871812 295.0625 131.4375 C304.14926405 136.76396411 313.31290701 141.93817836 322.51586914 147.06079102 C330.73781265 151.64818822 338.87566714 156.36854656 346.99609375 161.1328125 C353.75321523 165.09144068 360.54841662 168.9750232 367.375 172.8125 C375.21135271 177.21760575 382.99636287 181.70092997 390.75 186.25 C398.90650813 191.03359579 407.1129649 195.71363227 415.375 200.3125 C424.53219965 205.41087113 433.61193022 210.62557969 442.65332031 215.92626953 C450.2829881 220.39528735 457.94477486 224.80611631 465.625 229.1875 C466.5014769 229.68754547 466.5014769 229.68754547 467.3956604 230.19769287 C470.3669198 231.8925349 473.33863272 233.58657984 476.31054688 235.28027344 C481.58593295 238.28720744 486.85734438 241.30109617 492.12902832 244.31451416 C495.04418658 245.9807993 497.95960663 247.64662627 500.875 249.3125 C502.04166792 249.97916448 503.20833459 250.64583114 504.375 251.3125 C504.9525 251.6425 505.53 251.9725 506.125 252.3125 C511.375 255.3125 511.375 255.3125 513.12493896 256.31246948 C514.29180407 256.97924664 515.45867419 257.64601503 516.62554932 258.31277466 C519.53922091 259.97767906 522.45280578 261.64273486 525.36621094 263.30810547 C530.65184891 266.32930142 535.93813903 269.34932799 541.22761536 272.36380005 C544.19383394 274.05429075 547.1595512 275.74565935 550.125 277.4375 C550.7079483 277.77005798 551.29089661 278.10261597 551.89151001 278.44525146 C559.97745969 283.06038047 568.03072771 287.72871812 576.0625 292.4375 C585.14926405 297.76396411 594.31290701 302.93817836 603.51586914 308.06079102 C611.73781265 312.64818822 619.87566714 317.36854656 627.99609375 322.1328125 C634.75321523 326.09144068 641.54841662 329.9750232 648.375 333.8125 C656.21135271 338.21760575 663.99636287 342.70092997 671.75 347.25 C679.90650563 352.03359433 688.11290677 356.71373924 696.375 361.3125 C705.64942273 366.47473312 714.84127738 371.76166861 723.99609375 377.1328125 C730.75321523 381.09144068 737.54841662 384.9750232 744.375 388.8125 C752.21135271 393.21760575 759.99636287 397.70092997 767.75 402.25 C775.90650813 407.03359579 784.1129649 411.71363227 792.375 416.3125 C801.53219965 421.41087113 810.61193022 426.62557969 819.65332031 431.92626953 C827.2829881 436.39528735 834.94477486 440.80611631 842.625 445.1875 C843.5014769 445.68754547 843.5014769 445.68754547 844.3956604 446.19769287 C847.3669198 447.8925349 850.33863272 449.58657984 853.31054688 451.28027344 C858.58593295 454.28720744 863.85734438 457.30109617 869.12902832 460.31451416 C872.04418658 461.9807993 874.95960663 463.64662627 877.875 465.3125 C879.04166792 465.97916448 880.20833459 466.64583114 881.375 467.3125 C881.9525 467.6425 882.53 467.9725 883.125 468.3125 C888.37500001 471.31250001 888.37500001 471.31250001 890.12493896 472.31246948 C891.29180407 472.97924664 892.45867419 473.64601503 893.62554932 474.31277466 C896.53922091 475.97767906 899.45280578 477.64273486 902.36621094 479.30810547 C907.65184891 482.32930142 912.93813903 485.34932799 918.22761536 488.36380005 C921.19383394 490.05429075 924.1595512 491.74565935 927.125 493.4375 C927.7079483 493.77005798 928.29089661 494.10261597 928.89151001 494.44525146 C936.97745969 499.06038047 945.03072771 503.72871812 953.0625 508.4375 C962.14926405 513.76396411 971.31290701 518.93817836 980.51586914 524.06079102 C988.73781265 528.64818822 996.87566714 533.36854656 1004.99609375 538.1328125 C1011.75321523 542.09144068 1018.54841662 545.9750232 1025.375 549.8125 C1033.21135231 554.21760552 1040.99638487 558.70089171 1048.75 563.25 C1061.02616612 570.45036547 1073.4332547 577.40288788 1085.875 584.3125 C1085.875 588.13857935 1084.41177296 589.1266718 1081.81115723 591.74188232 C1080.93010315 592.6044162 1080.93010315 592.6044162 1080.03125 593.484375 C1079.42873413 594.0850177 1078.82621826 594.6856604 1078.20544434 595.30450439 C1076.92430286 596.57891259 1075.63956351 597.8497124 1074.3515625 599.1171875 C1072.40382356 601.03413215 1070.46661506 602.96119664 1068.53125 604.890625 C1067.28186287 606.13082605 1066.03188042 607.3704277 1064.78125 608.609375 C1063.92448669 609.45976349 1063.92448669 609.45976349 1063.05041504 610.32733154 C1060.14708184 613.18085214 1057.19088168 615.92868588 1054.10229492 618.58123779 C1050.16218296 622.01717803 1046.43946609 625.61889655 1042.75976562 629.33007812 C1042.09845139 629.99285263 1041.43713715 630.65562714 1040.75578308 631.33848572 C1039.33445143 632.76359348 1037.91427499 634.18985418 1036.49516296 635.61717224 C1034.24320944 637.88200817 1031.98804304 640.1436015 1029.73205566 642.40441895 C1024.94354507 647.20430066 1020.15897981 652.00810304 1015.375 656.8125 C1009.826873 662.3843054 1004.27709855 667.954449 998.72306824 673.52037048 C996.51207313 675.73780078 994.30413559 677.95824414 992.09631348 680.17883301 C990.72777027 681.55101207 989.35908459 682.92304907 987.99023438 684.29492188 C987.08442879 685.20847694 987.08442879 685.20847694 986.1603241 686.14048767 C982.51839272 689.7828617 978.7405801 693.19892922 974.84548187 696.56786346 C971.68930871 699.36229415 968.72688485 702.33757416 965.75976562 705.33007812 C965.09845139 705.99285263 964.43713715 706.65562714 963.75578308 707.33848572 C962.33445143 708.76359348 960.91427499 710.18985418 959.49516296 711.61717224 C957.24320944 713.88200817 954.98804304 716.1436015 952.73205566 718.40441895 C947.94354507 723.20430066 943.15897981 728.00810304 938.375 732.8125 C932.826873 738.3843054 927.27709855 743.954449 921.72306824 749.52037048 C919.51207313 751.73780078 917.30413559 753.95824414 915.09631348 756.17883301 C913.72777027 757.55101207 912.35908459 758.92304907 910.99023438 760.29492188 C910.08442879 761.20847694 910.08442879 761.20847694 909.1603241 762.14048767 C905.51839272 765.7828617 901.7405801 769.19892922 897.84548187 772.56786346 C894.68930871 775.36229415 891.72688485 778.33757416 888.75976562 781.33007812 C888.09845139 781.99285263 887.43713715 782.65562714 886.75578308 783.33848572 C885.33445143 784.76359348 883.91427499 786.18985418 882.49516296 787.61717224 C880.24320944 789.88200817 877.98804304 792.1436015 875.73205566 794.40441895 C870.94354507 799.20430066 866.15897981 804.00810304 861.375 808.8125 C855.826873 814.3843054 850.27709855 819.954449 844.72306824 825.52037048 C842.51207313 827.73780078 840.30413559 829.95824414 838.09631348 832.17883301 C836.72777027 833.55101207 835.35908459 834.92304907 833.99023438 836.29492188 C833.08442879 837.20847694 833.08442879 837.20847694 832.1603241 838.14048767 C828.51839272 841.7828617 824.7405801 845.19892922 820.84548187 848.56786346 C817.68930871 851.36229415 814.72688485 854.33757416 811.75976562 857.33007812 C811.09845139 857.99285263 810.43713715 858.65562714 809.75578308 859.33848572 C808.33445143 860.76359348 806.91427499 862.18985418 805.49516296 863.61717224 C803.24320944 865.88200817 800.98804304 868.1436015 798.73205566 870.40441895 C793.94354507 875.20430066 789.15897981 880.00810304 784.375 884.8125 C778.826873 890.3843054 773.27709855 895.954449 767.72306824 901.52037048 C765.51207313 903.73780078 763.30413559 905.95824414 761.09631348 908.17883301 C759.72777027 909.55101207 758.35908459 910.92304907 756.99023438 912.29492188 C756.08442879 913.20847694 756.08442879 913.20847694 755.1603241 914.14048767 C752.15463489 917.14654219 749.09170631 920.03027695 745.87599182 922.81150818 C741.99669739 926.1667769 738.35405964 929.70497805 734.74389648 933.34594727 C734.08097595 934.01032806 733.41805542 934.67470886 732.73504639 935.35922241 C731.31043849 936.78760629 729.8869858 938.21714312 728.4645977 939.6477375 C726.20871611 941.91649727 723.94962522 944.18201809 721.68971252 946.44676208 C716.89448289 951.25336266 712.1032021 956.06388741 707.3125 960.875 C701.75357364 966.45759085 696.19300603 972.03852625 690.62819099 977.61524773 C688.41106118 979.83882264 686.19698338 982.06540553 683.98301697 984.29212952 C682.61439699 985.6643844 681.24563507 987.03649775 679.87670898 988.40844727 C679.26924332 989.02107925 678.66177765 989.63371124 678.03590393 990.26490784 C674.60848288 993.69274645 671.08600315 996.91546045 667.34930515 1000.00468349 C665.69116242 1001.39975268 665.69116242 1001.39975268 663.9375 1003.75 C662.14622445 1005.97552417 660.47050602 1007.5983896 658.3125 1009.4375 C652.86109537 1014.08510584 647.89481294 1019.20963869 642.875 1024.3125 C640.0561956 1023.02864596 638.00848617 1021.69361343 635.82830811 1019.49958801 C635.2537941 1018.92637817 634.67928009 1018.35316833 634.08735657 1017.7625885 C633.46910507 1017.13557541 632.85085358 1016.50856232 632.21386719 1015.86254883 C631.55313705 1015.20050446 630.89240692 1014.53846008 630.21165466 1013.85635376 C628.02709794 1011.66530382 625.84960355 1009.46736614 623.671875 1007.26953125 C622.15027059 1005.74165333 620.62814781 1004.21429149 619.10552979 1002.68742371 C615.09305491 998.66163746 611.08617392 994.6303331 607.08087158 990.59741211 C600.68572908 984.15919772 594.28398628 977.72756511 587.87882233 971.29932213 C585.64975156 969.06009184 583.42416534 966.81744173 581.19891357 964.57441711 C579.8172992 963.18596676 578.43557082 961.79762984 577.05371094 960.40942383 C576.44355637 959.79253189 575.83340179 959.17563995 575.20475769 958.54005432 C572.1896364 955.51713184 569.11878763 952.61731005 565.88824463 949.82475281 C561.91176144 946.3866287 558.1850722 942.75048372 554.484375 939.01953125 C553.79380005 938.32749603 553.1032251 937.63546082 552.39172363 936.92245483 C550.90655022 935.43350346 549.42253208 933.94339898 547.9395752 932.45223999 C545.58680265 930.08659364 543.23082412 927.72418172 540.87402344 925.36254883 C535.0239168 919.4991395 529.17928617 913.63028148 523.33447266 907.76159668 C518.38515593 902.79248841 513.43375529 897.82547418 508.47961426 892.86117554 C506.16890529 890.54402763 503.86125109 888.22386741 501.55371094 885.90356445 C500.12449865 884.47071656 498.69514404 883.0380106 497.265625 881.60546875 C496.63370239 880.96837982 496.00177979 880.33129089 495.35070801 879.67489624 C491.64522614 875.96898278 487.81099785 872.48526015 483.84700012 869.05865479 C480.62586413 866.2064227 477.6048772 863.16516671 474.57617188 860.11132812 C473.89535049 859.42904648 473.21452911 858.74676483 472.51307678 858.04380798 C471.04918396 856.5761378 469.58644641 855.10731458 468.12477112 853.63743591 C465.80560487 851.30539308 463.48323041 848.97658732 461.16003418 846.64855957 C455.39340232 840.86862674 449.63224766 835.08324443 443.87091064 829.29803467 C438.9920549 824.39938544 434.11111392 819.50283173 429.22743225 814.60899353 C426.94996126 812.32508482 424.67554594 810.03816354 422.40124512 807.75109863 C420.99225586 806.33847368 419.58312422 804.92599071 418.17382812 803.51367188 C417.55125626 802.88593369 416.92868439 802.2581955 416.2872467 801.61143494 C413.24070851 798.5645369 410.14088555 795.63641285 406.8807373 792.8182373 C402.90679503 789.3823312 399.18269939 785.74809151 395.484375 782.01953125 C394.79380005 781.32749603 394.1032251 780.63546082 393.39172363 779.92245483 C391.90655022 778.43350346 390.42253208 776.94339898 388.9395752 775.45223999 C386.58680265 773.08659364 384.23082412 770.72418172 381.87402344 768.36254883 C376.0239168 762.4991395 370.17928617 756.63028148 364.33447266 750.76159668 C359.38515593 745.79248841 354.43375529 740.82547418 349.47961426 735.86117554 C347.16890529 733.54402763 344.86125109 731.22386741 342.55371094 728.90356445 C341.12449865 727.47071656 339.69514404 726.0380106 338.265625 724.60546875 C337.63370239 723.96837982 337.00177979 723.33129089 336.35070801 722.67489624 C332.64522614 718.96898278 328.81099785 715.48526015 324.84700012 712.05865479 C321.62586413 709.2064227 318.6048772 706.16516671 315.57617188 703.11132812 C314.89535049 702.42904648 314.21452911 701.74676483 313.51307678 701.04380798 C312.04918396 699.5761378 310.58644641 698.10731458 309.12477112 696.63743591 C306.80560487 694.30539308 304.48323041 691.97658732 302.16003418 689.64855957 C296.39340232 683.86862674 290.63224766 678.08324443 284.87091064 672.29803467 C279.9920549 667.39938544 275.11111392 662.50283173 270.22743225 657.60899353 C267.94996126 655.32508482 265.67554594 653.03816354 263.40124512 650.75109863 C261.99225586 649.33847368 260.58312422 647.92599071 259.17382812 646.51367188 C258.55125626 645.88593369 257.92868439 645.2581955 257.2872467 644.61143494 C254.24259192 641.56642054 251.14487703 638.64009204 247.88647461 635.82397461 C243.87785501 632.35804937 240.12340686 628.68861997 236.39257812 624.92773438 C235.6922496 624.22594559 234.99192108 623.5241568 234.27037048 622.80110168 C232.76391646 621.29086912 231.25861774 619.77948341 229.75437927 618.26704407 C227.36800047 615.86779417 224.97841784 613.47177612 222.5880127 611.07653809 C216.65443125 605.12965228 210.72632466 599.17731855 204.79803467 593.22515869 C199.77825699 588.18559135 194.75639667 583.14811663 189.73179626 578.11335754 C187.38784929 575.76297046 185.04695622 573.4095713 182.70617676 571.05603027 C181.25674145 569.60295943 179.80716386 568.15003049 178.35742188 566.69726562 C177.71614853 566.05082596 177.07487518 565.40438629 176.41416931 564.73835754 C172.68630399 561.01006398 168.83205068 557.50234943 164.84377289 554.05542755 C161.62348398 551.20455009 158.60379414 548.16407467 155.57617188 545.11132812 C154.89535049 544.42904648 154.21452911 543.74676483 153.51307678 543.04380798 C152.04918396 541.5761378 150.58644641 540.10731458 149.12477112 538.63743591 C146.80560487 536.30539308 144.48323041 533.97658732 142.16003418 531.64855957 C136.39340232 525.86862674 130.63224766 520.08324443 124.87091064 514.29803467 C119.9920549 509.39938544 115.11111392 504.50283173 110.22743225 499.60899353 C107.94996126 497.32508482 105.67554594 495.03816354 103.40124512 492.75109863 C101.99225586 491.33847368 100.58312422 489.92599071 99.17382812 488.51367188 C98.55125626 487.88593369 97.92868439 487.2581955 97.2872467 486.61143494 C94.24070851 483.5645369 91.14088555 480.63641285 87.8807373 477.8182373 C83.90679503 474.3823312 80.18269939 470.74809151 76.484375 467.01953125 C75.79380005 466.32749603 75.1032251 465.63546082 74.39172363 464.92245483 C72.90655022 463.43350346 71.42253208 461.94339898 69.9395752 460.45223999 C67.58680265 458.08659364 65.23082412 455.72418172 62.87402344 453.36254883 C57.0239168 447.4991395 51.17928617 441.63028148 45.33447266 435.76159668 C40.38515593 430.79248841 35.43375529 425.82547418 30.47961426 420.86117554 C28.16890529 418.54402763 25.86125109 416.22386741 23.55371094 413.90356445 C22.12449865 412.47071656 20.69514404 411.0380106 19.265625 409.60546875 C18.63370239 408.96837982 18.00177979 408.33129089 17.35070801 407.67489624 C13.64522614 403.96898278 9.81099785 400.48526015 5.84700012 397.05865479 C2.62586413 394.2064227 -0.3951228 391.16516671 -3.42382812 388.11132812 C-4.10464951 387.42904648 -4.78547089 386.74676483 -5.48692322 386.04380798 C-6.95081604 384.5761378 -8.41355359 383.10731458 -9.87522888 381.63743591 C-12.19439513 379.30539308 -14.51676959 376.97658732 -16.83996582 374.64855957 C-22.60659768 368.86862674 -28.36775234 363.08324443 -34.12908936 357.29803467 C-39.0079451 352.39938544 -43.88888608 347.50283173 -48.77256775 342.60899353 C-51.05003874 340.32508482 -53.32445406 338.03816354 -55.59875488 335.75109863 C-57.00774414 334.33847368 -58.41687578 332.92599071 -59.82617188 331.51367188 C-60.44874374 330.88593369 -61.07131561 330.2581955 -61.7127533 329.61143494 C-64.75929149 326.5645369 -67.85911445 323.63641285 -71.1192627 320.8182373 C-75.09320497 317.3823312 -78.81730061 313.74809151 -82.515625 310.01953125 C-83.20619995 309.32749603 -83.8967749 308.63546082 -84.60827637 307.92245483 C-86.09344978 306.43350346 -87.57746792 304.94339898 -89.0604248 303.45223999 C-91.41319735 301.08659364 -93.76917588 298.72418172 -96.12597656 296.36254883 C-101.9760832 290.4991395 -107.82071383 284.63028148 -113.66552734 278.76159668 C-118.61484407 273.79248841 -123.56624471 268.82547418 -128.52038574 263.86117554 C-130.83109471 261.54402763 -133.13874891 259.22386741 -135.44628906 256.90356445 C-136.87550135 255.47071656 -138.30485596 254.0380106 -139.734375 252.60546875 C-140.36629761 251.96837982 -140.99822021 251.33129089 -141.64929199 250.67489624 C-145.37838182 246.94537208 -149.23612572 243.4341778 -153.22579956 239.9858551 C-156.00748313 237.53495824 -158.623334 234.93870641 -161.23046875 232.3046875 C-161.78449371 231.74920227 -162.33851868 231.19371704 -162.90933228 230.62139893 C-164.0965784 229.4303852 -165.28266962 228.23821926 -166.46768188 227.04498291 C-168.34996176 225.14978107 -170.23548618 223.25785947 -172.12182617 221.36669922 C-176.80328905 216.67196322 -181.47925545 211.97176516 -186.15539551 207.27172852 C-190.11825528 203.2890437 -194.08322178 199.3084784 -198.05093384 195.33062744 C-199.89631359 193.47882966 -201.73862294 191.62401551 -203.58081055 189.76904297 C-208.76239355 184.56514449 -213.92656241 179.41387846 -219.5456543 174.67529297 C-221.15161214 173.28953679 -222.64348256 171.82963219 -224.125 170.3125 C-220.34870778 153.51586688 -213.24791465 137.42311554 -205.125 122.3125 C-204.77856445 121.65443359 -204.43212891 120.99636719 -204.07519531 120.31835938 C-175.70982044 66.59802453 -124.24133784 27.1194627 -66.72265625 9.21875 C-44.65526421 2.67259706 -22.94609206 -0.09359215 0 0 Z " fill="#34A753" transform="translate(231.125,-0.3125)"/>
<path d="M0 0 C2.93134469 1.11973201 5.52584091 2.46518684 8.24169922 4.04150391 C9.35480469 4.6828125 10.46791016 5.32412109 11.61474609 5.98486328 C12.81988511 6.68853505 14.02496156 7.39231397 15.22998047 8.09619141 C16.48805972 8.82406957 17.74652959 9.55127296 19.00537109 10.27783203 C21.59465682 11.77373228 24.18162569 13.27352005 26.76660156 14.77685547 C31.29695336 17.41128696 35.83698308 20.02885036 40.37719727 22.64624023 C42.50285018 23.87179022 44.62800619 25.09820242 46.75268555 26.32543945 C58.14961391 32.90763648 69.57943966 39.43200126 81.01025391 45.95507812 C87.43851092 49.62370744 93.86395692 53.29725914 100.28991699 56.96990967 C102.03814977 57.96906554 103.78640135 58.96818849 105.53466797 59.96728516 C106.40031372 60.46198303 106.40031372 60.46198303 107.28344727 60.9666748 C110.80296549 62.97779301 114.32313872 64.98775956 117.84381104 66.99685669 C130.83351402 74.40958803 143.80820091 81.84730229 156.75830078 89.32910156 C168.15393947 95.90907498 179.58137404 102.43310512 191.01025391 108.95507812 C197.43851092 112.62370744 203.86395692 116.29725914 210.28991699 119.96990967 C212.03814977 120.96906554 213.78640135 121.96818849 215.53466797 122.96728516 C216.11176514 123.29708374 216.6888623 123.62688232 217.28344727 123.9666748 C220.80296549 125.97779301 224.32313872 127.98775956 227.84381104 129.99685669 C240.83351402 137.40958803 253.80820091 144.84730229 266.75830078 152.32910156 C278.15393947 158.90907498 289.58137404 165.43310512 301.01025391 171.95507812 C307.43851092 175.62370744 313.86395692 179.29725914 320.28991699 182.96990967 C322.03814977 183.96906554 323.78640135 184.96818849 325.53466797 185.96728516 C326.11176514 186.29708374 326.6888623 186.62688232 327.28344727 186.9666748 C330.80296549 188.97779301 334.32313872 190.98775956 337.84381104 192.99685669 C350.81441838 200.39869087 363.77019181 207.82519838 376.70117188 215.29614258 C385.13649025 220.16685033 393.58606439 225.01224163 402.04248047 229.84619141 C402.66010254 230.1994751 403.27772461 230.55275879 403.9140625 230.91674805 C405.65443085 231.91207811 407.39531833 232.90650028 409.13623047 233.90087891 C410.13332031 234.4704834 411.13041016 235.04008789 412.15771484 235.62695312 C413.60150364 236.44078411 415.06009132 237.22999683 416.54248047 237.97119141 C416.54248047 238.63119141 416.54248047 239.29119141 416.54248047 239.97119141 C417.32623047 240.16841797 418.10998047 240.36564453 418.91748047 240.56884766 C423.93705746 242.51068833 428.10256954 245.39609416 432.54248047 248.40869141 C433.47656738 249.03904297 434.4106543 249.66939453 435.37304688 250.31884766 C465.72004444 270.98597404 490.29325524 297.07404132 508.54248047 328.97119141 C509.13754395 329.99865479 509.13754395 329.99865479 509.74462891 331.046875 C528.37584895 363.50705175 537.35138991 400.45552322 537.06396484 437.73510742 C537.04246184 441.03655166 537.06395084 444.33582644 537.08935547 447.63720703 C537.13359108 482.18666161 528.00964434 516.60571 511.54248047 546.97119141 C511.2013623 547.61717285 510.86024414 548.2631543 510.50878906 548.92871094 C502.03779107 564.95929541 491.59377868 579.44886285 479.54248047 592.97119141 C479.07422852 593.50115723 478.60597656 594.03112305 478.12353516 594.57714844 C472.60554877 600.80416034 466.96816575 606.6655797 460.54248047 611.97119141 C459.68525391 612.71626953 458.82802734 613.46134766 457.94482422 614.22900391 C444.55881686 625.72331439 429.91669875 634.69179912 414.54882812 643.28320312 C409.59993769 646.06188011 404.67718567 648.88614809 399.7520752 651.70669556 C396.76533092 653.41655882 393.77685852 655.12339655 390.78857422 656.83056641 C389.57746582 657.52260946 388.36636556 658.21466675 387.15527344 658.90673828 C329.36767578 691.92822266 271.58007812 724.94970703 210.29252625 759.97116089 C209.12570198 760.63792052 207.95888273 761.30468891 206.79206848 761.97146606 C203.87785401 763.63678229 200.96355305 765.30194677 198.04907227 766.96679688 C192.76972383 769.98273746 187.49104103 772.99981482 182.21554565 776.02249146 C179.26245031 777.71446981 176.30885058 779.40556605 173.35498047 781.09619141 C172.77397583 781.42874939 172.19297119 781.76130737 171.59436035 782.10394287 C163.35462896 786.81789039 155.08451205 791.47487135 146.79248047 796.09619141 C137.64802476 801.19333739 128.58888955 806.42117887 119.56103516 811.72167969 C111.40129551 816.50042227 103.1603994 821.12295826 94.89794922 825.72119141 C87.72894352 829.72083593 80.62155284 833.81467185 73.54248047 837.97119141 C64.40354371 843.33717262 55.18946977 848.55116349 45.92871094 853.70361328 C37.47716303 858.41791985 29.10818097 863.26473676 20.77099609 868.17822266 C18.03467454 869.78737175 15.28966106 871.38066688 12.54248047 872.97119141 C11.05893066 873.84904297 11.05893066 873.84904297 9.54541016 874.74462891 C8.57249023 875.30408203 7.59957031 875.86353516 6.59716797 876.43994141 C5.72302246 876.94976563 4.84887695 877.45958984 3.94824219 877.98486328 C1.13620117 879.13776015 0.34193198 878.97345357 -2.45751953 877.97119141 C-4.00584412 876.78363037 -4.00584412 876.78363037 -5.49438477 875.27490234 C-6.05854599 874.71051453 -6.62270721 874.14612671 -7.20396423 873.56463623 C-7.80197342 872.95114319 -8.3999826 872.33765015 -9.01611328 871.70556641 C-9.64228043 871.07515442 -10.26844757 870.44474243 -10.91358948 869.79522705 C-12.91455417 867.7774847 -14.90486219 865.74958862 -16.89501953 863.72119141 C-18.23091347 862.37024377 -19.56749467 861.01997537 -20.90478516 859.67041016 C-23.87033829 856.67543525 -26.82918991 853.67401733 -29.7822113 850.66668701 C-31.99736169 848.42484418 -34.22819672 846.19894777 -36.45751953 843.97119141 C-37.72847615 842.69834993 -38.99923459 841.42531054 -40.26985168 840.15213013 C-41.34824562 839.07156845 -41.34824562 839.07156845 -42.44842529 837.96917725 C-43.22204407 837.19398743 -43.99566284 836.41879761 -44.79272461 835.62011719 C-53.22384911 827.1726106 -61.65753363 818.7276652 -70.09270191 810.28419685 C-75.19166352 805.18008105 -80.28967904 800.07502689 -85.38549805 794.96777344 C-89.84554879 790.49772041 -94.30738582 786.02945927 -98.7713291 781.56329334 C-101.12806889 779.20525746 -103.48366576 776.84610746 -105.83765602 774.48532486 C-108.4674735 771.84821774 -111.10043529 769.21428798 -113.73413086 766.58105469 C-114.50167694 765.80991333 -115.26922302 765.03877197 -116.06002808 764.2442627 C-120.10083814 760.21108921 -124.23684584 756.37042652 -128.56037426 752.64304924 C-131.59996382 749.96441324 -134.44637756 747.10556907 -137.29736328 744.22900391 C-137.92941681 743.59549011 -138.56147034 742.96197632 -139.212677 742.30926514 C-140.57016699 740.94800108 -141.92650183 739.58558424 -143.2817688 738.22210693 C-145.4329029 736.058081 -147.58725742 733.89730663 -149.74243164 731.73730469 C-155.09169006 726.37475468 -160.43546478 721.00675094 -165.77941895 715.63891602 C-170.30596931 711.09256154 -174.83461215 706.54831066 -179.36599731 702.0067749 C-181.47727878 699.88906235 -183.58549961 697.76833593 -185.69360352 695.64746094 C-192.8806542 688.35199993 -192.8806542 688.35199993 -200.45751953 681.47119141 C-206.40305457 676.42326092 -211.78776018 670.74939877 -217.2817688 665.22210693 C-219.4329029 663.058081 -221.58725742 660.89730663 -223.74243164 658.73730469 C-229.09169006 653.37475468 -234.43546478 648.00675094 -239.77941895 642.63891602 C-244.30596931 638.09256154 -248.83461215 633.54831066 -253.36599731 629.0067749 C-255.47727878 626.88906235 -257.58549961 624.76833593 -259.69360352 622.64746094 C-266.8806542 615.35199993 -266.8806542 615.35199993 -274.45751953 608.47119141 C-280.40305457 603.42326092 -285.78776018 597.74939877 -291.2817688 592.22210693 C-293.4329029 590.058081 -295.58725742 587.89730663 -297.74243164 585.73730469 C-303.09169006 580.37475468 -308.43546478 575.00675094 -313.77941895 569.63891602 C-318.30596931 565.09256154 -322.83461215 560.54831066 -327.36599731 556.0067749 C-329.47727878 553.88906235 -331.58549961 551.76833593 -333.69360352 549.64746094 C-339.09392418 544.22671732 -344.45769093 538.86501585 -350.29345703 533.91040039 C-355.43681431 529.30145557 -360.22964584 524.30419013 -365.09657288 519.40730286 C-367.21410041 517.27688015 -369.33485103 515.14971219 -371.4564209 513.02331543 C-376.72220473 507.74424206 -381.98250345 502.45971404 -387.24298096 497.175354 C-391.69907015 492.69945838 -396.15725339 488.22566812 -400.61817932 483.7545929 C-402.69622296 481.67011962 -404.77120488 479.5826322 -406.84606934 477.49499512 C-415.1278494 469.18006605 -415.1278494 469.18006605 -423.85876465 461.34286499 C-426.30346841 459.24539802 -428.56288188 456.97767054 -430.83251953 454.69384766 C-431.75419922 453.76894531 -432.67587891 452.84404297 -433.62548828 451.89111328 C-434.5695556 450.93869573 -435.51356535 449.9862211 -436.45751953 449.03369141 C-437.43254339 448.0536383 -438.40780233 447.073819 -439.38330078 446.09423828 C-441.74368571 443.72216828 -444.10168858 441.3477828 -446.45751953 438.97119141 C-442.62589086 434.38480932 -438.65580463 430.03550527 -434.39501953 425.84619141 C-433.89164063 425.34732422 -433.38826172 424.84845703 -432.86962891 424.33447266 C-431.92479279 423.39819263 -430.97891478 422.46296154 -430.03149414 421.52929688 C-428.79513437 420.30540234 -427.56956705 419.07060436 -426.34814453 417.83180237 C-423.55314608 415.03596808 -420.66887532 412.34127184 -417.77845669 409.64468288 C-409.24498095 401.68227504 -400.9082633 393.54864078 -392.68169975 385.27053642 C-390.56776432 383.14348095 -388.45040757 381.0198791 -386.33229065 378.89698792 C-381.85030744 374.40376696 -377.37236415 369.90653393 -372.89501953 365.40869141 C-367.66543464 360.15534902 -362.43412201 354.90374923 -357.19859505 349.6563282 C-355.12716869 347.57849084 -353.0588072 345.49763699 -350.99058533 343.41661072 C-349.71205308 342.13444391 -348.43337908 340.85241843 -347.15454102 339.57055664 C-346.59286224 339.00371155 -346.03118347 338.43686646 -345.45248413 337.85284424 C-342.55212518 334.95210789 -339.58669405 332.18108662 -336.48365784 329.49732971 C-332.60257774 326.13758248 -328.95542363 322.59766341 -325.34228516 318.95361328 C-324.68097092 318.29083878 -324.01965668 317.62806427 -323.33830261 316.94520569 C-321.91697096 315.52009793 -320.49679452 314.09383723 -319.0776825 312.66651917 C-316.82572897 310.40168323 -314.57056257 308.14008991 -312.3145752 305.87927246 C-307.5260646 301.07939074 -302.74149934 296.27558837 -297.95751953 291.47119141 C-292.40939253 285.89938601 -286.85961808 280.32924241 -281.30558777 274.76332092 C-279.09459266 272.54589063 -276.88665512 270.32544727 -274.67883301 268.1048584 C-273.3102898 266.73267933 -271.94160412 265.36064234 -270.57275391 263.98876953 C-269.96888351 263.37973282 -269.36501312 262.77069611 -268.74284363 262.14320374 C-265.10091225 258.50082971 -261.32309963 255.08476219 -257.4280014 251.71582794 C-254.27182824 248.92139725 -251.30940439 245.94611725 -248.34228516 242.95361328 C-247.68097092 242.29083878 -247.01965668 241.62806427 -246.33830261 240.94520569 C-244.91697096 239.52009793 -243.49679452 238.09383723 -242.0776825 236.66651917 C-239.82572897 234.40168323 -237.57056257 232.14008991 -235.3145752 229.87927246 C-230.5260646 225.07939074 -225.74149934 220.27558837 -220.95751953 215.47119141 C-215.40939253 209.89938601 -209.85961808 204.32924241 -204.30558777 198.76332092 C-202.09459266 196.54589063 -199.88665512 194.32544727 -197.67883301 192.1048584 C-196.3102898 190.73267933 -194.94160412 189.36064234 -193.57275391 187.98876953 C-192.96888351 187.37973282 -192.36501312 186.77069611 -191.74284363 186.14320374 C-188.10091225 182.50082971 -184.32309963 179.08476219 -180.4280014 175.71582794 C-177.27182824 172.92139725 -174.30940439 169.94611725 -171.34228516 166.95361328 C-170.3503138 165.95945152 -170.3503138 165.95945152 -169.33830261 164.94520569 C-167.91697096 163.52009793 -166.49679452 162.09383723 -165.0776825 160.66651917 C-162.82572897 158.40168323 -160.57056257 156.14008991 -158.3145752 153.87927246 C-153.5260646 149.07939074 -148.74149934 144.27558837 -143.95751953 139.47119141 C-138.40939253 133.89938601 -132.85961808 128.32924241 -127.30558777 122.76332092 C-125.09459266 120.54589063 -122.88665512 118.32544727 -120.67883301 116.1048584 C-119.3102898 114.73267933 -117.94160412 113.36064234 -116.57275391 111.98876953 C-115.96888351 111.37973282 -115.36501312 110.77069611 -114.74284363 110.14320374 C-111.10091225 106.50082971 -107.32309963 103.08476219 -103.4280014 99.71582794 C-100.27182824 96.92139725 -97.30940439 93.94611725 -94.34228516 90.95361328 C-93.3503138 89.95945152 -93.3503138 89.95945152 -92.33830261 88.94520569 C-90.91697096 87.52009793 -89.49679452 86.09383723 -88.0776825 84.66651917 C-85.82572897 82.40168323 -83.57056257 80.14008991 -81.3145752 77.87927246 C-76.5260646 73.07939074 -71.74149934 68.27558837 -66.95751953 63.47119141 C-61.40939253 57.89938601 -55.85961808 52.32924241 -50.30558777 46.76332092 C-48.09459266 44.54589063 -45.88665512 42.32544727 -43.67883301 40.1048584 C-42.3102898 38.73267933 -40.94160412 37.36064234 -39.57275391 35.98876953 C-38.96888351 35.37973282 -38.36501312 34.77069611 -37.74284363 34.14320374 C-34.04013457 30.44004464 -30.21036463 26.94193127 -26.23553753 23.53210449 C-23.68626564 21.29411148 -21.37816063 18.89831474 -19.03955078 16.43994141 C-18.08651489 15.4548498 -17.13271785 14.4704941 -16.17822266 13.48681641 C-14.70945419 11.96830532 -13.24603399 10.44582063 -11.79467773 8.91064453 C-10.36907948 7.40657081 -8.92527712 5.92219522 -7.47705078 4.43994141 C-6.63247314 3.55757812 -5.78789551 2.67521484 -4.91772461 1.76611328 C-2.45751953 -0.02880859 -2.45751953 -0.02880859 0 0 Z " fill="#FABB04" transform="translate(1319.45751953125,586.02880859375)"/>
</svg>
